<?xml version="1.0" encoding="UTF-8" standalone="no"?>
<svg width="640px" height="614px" viewBox="0 0 640 614" version="1.1" xmlns="http://www.w3.org/2000/svg" xmlns:xlink="http://www.w3.org/1999/xlink" xmlns:sketch="http://www.bohemiancoding.com/sketch/ns">
    <!-- Generator: Sketch 3.3.3 (12072) - http://www.bohemiancoding.com/sketch -->
    <title>Group</title>
    <desc>Created with Sketch.</desc>
    <defs></defs>
    <g id="Page-1" stroke="none" stroke-width="1" fill="none" fill-rule="evenodd" sketch:type="MSPage">
        <g id="Transparent" sketch:type="MSArtboardGroup" transform="translate(-192.000000, -205.000000)" fill="#FFFFFF">
            <g id="Group" sketch:type="MSLayerGroup" transform="translate(192.689223, 205.000000)">
                <path d="M319.984698,76.4788047 C289.647465,76.4788047 268.910255,106.858378 273.666843,144.333481 C278.423432,181.808584 299.160642,212.188157 319.984698,212.188157 C340.808754,212.188157 361.545964,181.808584 366.302553,144.333481 C371.059142,106.858378 350.321932,76.4788047 319.984698,76.4788047 L319.984698,76.4788047 L319.984698,76.4788047 Z M300.749782,0.346811237 C237.306916,9.87877138 195.791289,66.3727846 205.808369,134.639956 C216.806074,209.590161 267.924557,270.349308 319.984698,270.349308 C372.044839,270.349308 423.163322,209.590161 434.161027,134.639956 C444.178107,66.3727846 402.66248,9.87877138 339.219615,0.346811237 C339.220063,0.487537607 339.220287,0.628412431 339.220287,0.769423559 C339.220287,28.3905819 330.608221,50.7819549 319.984698,50.7819549 C309.361176,50.7819549 300.749109,28.3905819 300.749109,0.769423559 C300.749109,0.628412431 300.749334,0.487537607 300.749782,0.34680137 L300.749782,0.346811237 Z" id="Oval-21" sketch:type="MSShapeGroup"></path>
                <path d="M558.495655,247.913668 C549.120934,219.061244 513.820093,208.72679 479.649019,224.831018 C445.477945,240.935246 422.993404,270.045309 429.428391,289.850164 C435.863379,309.655018 471.16422,319.989472 508.275028,312.932813 C545.385835,305.876154 567.870376,276.766091 558.495655,247.913668 L558.495655,247.913668 L558.495655,247.913668 Z M624.957568,206.094095 C596.287211,148.701882 529.729177,126.675785 467.898688,157.29831 C400.015284,190.918636 358.026382,258.310812 374.11385,307.822948 C390.201318,357.335084 463.783181,387.176042 538.46354,374.474593 C606.484925,362.905686 647.38489,305.964369 636.8454,242.681081 C636.711699,242.724993 636.577789,242.76874 636.443679,242.812314 C610.174397,251.347722 586.217661,250.076475 582.934812,239.972904 C579.651963,229.869334 598.286149,214.759457 624.555432,206.22405 C624.689541,206.180475 624.82359,206.137156 624.957577,206.094092 L624.957568,206.094095 Z" id="Oval-21" sketch:type="MSShapeGroup"></path>
                <path d="M466.069078,527.087687 C490.612415,509.255909 489.532505,472.489291 463.657031,444.967149 C437.781558,417.445007 403.148137,405.056442 386.301122,417.296515 C369.454106,429.536588 370.534016,466.303205 388.713168,499.417053 C406.89232,532.530901 441.52574,544.919466 466.069078,527.087687 L466.069078,527.087687 L466.069078,527.087687 Z M526.379715,577.373763 C572.103326,532.371465 572.483825,462.264575 524.253401,412.923165 C471.301446,358.751464 394.232394,339.642973 352.114855,370.243155 C309.997317,400.843338 304.354925,480.045211 339.51222,547.14549 C371.534669,608.262683 438.327864,629.565027 495.256966,599.985764 C495.173887,599.872177 495.090901,599.758339 495.008017,599.644259 C478.772707,577.298272 472.578697,554.121225 481.173307,547.876875 C489.767917,541.632526 509.896544,554.685481 526.131854,577.031468 C526.214738,577.145548 526.297361,577.25965 526.379721,577.373771 L526.379715,577.373763 Z" id="Oval-21" sketch:type="MSShapeGroup"></path>
                <path d="M172.109577,527.199957 C196.652914,545.031735 231.286334,532.643171 249.465486,499.529323 C267.644638,466.415475 268.724548,429.648858 251.877532,417.408785 C235.030517,405.168712 200.397097,417.557276 174.521623,445.079419 C148.646149,472.601561 147.566239,509.368178 172.109577,527.199957 L172.109577,527.199957 L172.109577,527.199957 Z M142.921688,600.098034 C199.85079,629.677297 266.643985,608.374953 298.666434,547.25776 C333.823729,480.157481 328.181338,400.955608 286.063799,370.355425 C243.946261,339.755242 166.877208,358.863734 113.925253,413.035435 C65.6948287,462.376845 66.0753286,532.483735 111.798939,577.486033 C111.881294,577.37192 111.963916,577.257818 112.046801,577.143737 C128.28211,554.797751 148.410737,541.744795 157.005347,547.989145 C165.599957,554.233495 159.405947,577.410542 143.170637,599.756528 C143.087753,599.870609 143.004767,599.984447 142.921682,600.098042 L142.921688,600.098034 Z" id="Oval-21" sketch:type="MSShapeGroup"></path>
                <path d="M80.1399903,248.095324 C70.7652696,276.947748 93.2498104,306.057811 130.360618,313.11447 C167.471425,320.171129 202.772267,309.836674 209.207254,290.03182 C215.642241,270.226966 193.1577,241.116903 158.986626,225.012674 C124.815552,208.908446 89.514711,219.2429 80.1399903,248.095324 L80.1399903,248.095324 L80.1399903,248.095324 Z M1.79024574,242.862737 C-8.74924502,306.146025 32.1507202,363.087343 100.172106,374.65625 C174.852465,387.357698 248.434327,357.51674 264.521796,308.004604 C280.609264,258.492468 238.620362,191.100292 170.736958,157.479966 C108.906468,126.857441 42.3484343,148.883539 13.6780779,206.275751 C13.8120551,206.318812 13.9461044,206.362131 14.0802139,206.405706 C40.3494966,214.941114 58.9836828,230.05099 55.7008339,240.154561 C52.4179849,250.258131 28.4612488,251.529378 2.19196615,242.993971 C2.0578566,242.950396 1.92394604,242.90665 1.79023637,242.862734 L1.79024574,242.862737 Z" id="Oval-21" sketch:type="MSShapeGroup"></path>
            </g>
        </g>
    </g>
</svg>